# This file uses centimeters as units for non-parametric coordinates.

v 0.149169 -0.101583 0.113100
v 0.182914 -0.101583 0.004472
v 0.149169 -0.022606 0.113100
v 0.182914 -0.022606 0.004472
v -0.139113 -0.054218 -0.046934
v -0.054222 -0.054218 -0.122648
v -0.139113 -0.117101 -0.046934
v -0.054222 -0.117101 -0.122648
v 0.114438 0.025676 -0.012042
v 0.064381 0.025676 0.090102
v 0.064381 -0.149865 0.090102
v 0.114438 -0.149865 -0.012042
v 0.050525 0.041368 -0.038966
v -0.007208 0.041368 0.059043
v -0.007208 -0.165555 0.059043
v 0.050525 -0.165555 -0.038966
v -0.003953 0.031425 -0.073635
v -0.074248 0.031425 0.015794
v -0.074248 -0.155612 0.015794
v -0.003953 -0.155612 -0.073635
v 0.167415 -0.035215 0.120833
v 0.177791 -0.033872 0.010425
v -0.147914 -0.065485 -0.044749
v -0.071747 -0.065485 -0.090198
v 0.107925 0.014410 0.001442
v 0.069255 0.014410 0.108417
v 0.041467 0.030101 -0.018382
v -0.005284 0.030101 0.085318
v -0.016452 0.020157 -0.046931
v -0.076622 0.020157 0.049601
v 0.154725 -0.013209 0.124842
v 0.190835 -0.011867 0.014030
v 0.116949 0.038044 0.004259
v 0.078279 0.038044 0.111235
v 0.042414 0.055528 -0.018198
v -0.004337 0.055528 0.085502
v -0.025539 0.041783 -0.053434
v -0.085709 0.041783 0.043097
v -0.086809 -0.047825 -0.101541
v -0.206616 -0.047825 -0.093143
v 0.182600 0.003102 0.121565
v 0.206617 0.003102 0.028215
v 0.182600 0.030586 0.121565
v 0.206617 0.030586 0.028215
v -0.187355 0.019343 -0.002977
v -0.109484 0.019343 -0.124842
v -0.187355 -0.006940 -0.002977
v -0.109484 -0.006940 -0.124842
v 0.120361 0.101127 0.014536
v 0.079808 0.101051 0.117660
v 0.079808 0.052637 0.117660
v 0.120361 0.052727 0.014536
v -0.016997 0.165555 -0.047718
v -0.065845 0.165555 0.055009
v -0.065845 0.106754 0.055009
v -0.016997 0.106768 -0.047718
v -0.079666 0.152369 -0.096792
v -0.140954 0.152369 0.007904
v -0.140954 0.084189 0.007904
v -0.079666 0.084189 -0.096792
vt 0.863686 0.971643
vt 0.863686 0.957198
vt 0.874188 0.957198
vt 0.874188 0.971643
vt 0.201250 0.851257
vt 0.215695 0.846770
vt 0.217891 0.855875
vt 0.204308 0.862531
vt 0.023735 0.848630
vt 0.023735 0.859918
vt 0.015374 0.859918
vt 0.015374 0.848630
vt 0.370218 0.864311
vt 0.356635 0.857655
vt 0.358831 0.848549
vt 0.373276 0.853037
vt 0.272977 0.918890
vt 0.266557 0.930165
vt 0.256056 0.930165
vt 0.249635 0.918890
vt 0.221471 0.864374
vt 0.208438 0.872051
vt 0.275064 0.909371
vt 0.247549 0.909371
vt 0.226081 0.871618
vt 0.214189 0.880965
vt 0.273742 0.900456
vt 0.248871 0.900456
vt 0.360337 0.882745
vt 0.348445 0.873398
vt 0.232598 0.878302
vt 0.222530 0.889591
vt 0.268621 0.891831
vt 0.260259 0.891831
vt 0.351996 0.891371
vt 0.341928 0.880082
vt 0.762184 0.759700
vt 0.776919 0.754898
vt 0.778218 0.764723
vt 0.763993 0.769865
vt 0.781204 0.774634
vt 0.767415 0.780851
vt 0.785890 0.783670
vt 0.773054 0.791671
vt 0.792287 0.791817
vt 0.791170 0.807748
vt 0.234381 0.777601
vt 0.232730 0.790654
vt 0.218505 0.785512
vt 0.219700 0.776221
vt 0.229659 0.800565
vt 0.215869 0.794349
vt 0.224909 0.810051
vt 0.212073 0.802050
vt 0.217554 0.819531
vt 0.206320 0.809403
vt 0.187004 0.973059
vt 0.187182 0.958378
vt 0.190109 0.958858
vt 0.189930 0.973593
vt 0.333149 0.820001
vt 0.339748 0.833054
vt 0.336822 0.831367
vt 0.330007 0.821201
vt 0.331063 0.810090
vt 0.327682 0.810216
vt 0.332385 0.800604
vt 0.329509 0.799395
vt 0.205928 0.827337
vt 0.204811 0.811406
vt 0.343773 0.791124
vt 0.341425 0.783318
vt 0.334805 0.975780
vt 0.334805 0.963368
vt 0.338459 0.963368
vt 0.338459 0.975780
vt 0.414938 0.814757
vt 0.427351 0.811564
vt 0.429170 0.823034
vt 0.415457 0.828426
vt 0.065847 0.775393
vt 0.065847 0.785748
vt 0.062352 0.785748
vt 0.062352 0.775393
vt 0.507562 0.846234
vt 0.493849 0.840841
vt 0.495668 0.829371
vt 0.508081 0.832565
vt 0.462007 0.821419
vt 0.468594 0.835087
vt 0.464939 0.835087
vt 0.455569 0.821419
vt 0.437448 0.841298
vt 0.423788 0.847794
vt 0.454811 0.802051
vt 0.446992 0.802051
vt 0.499231 0.865602
vt 0.485571 0.859106
vt 0.443974 0.849632
vt 0.430052 0.857781
vt 0.457811 0.792063
vt 0.448745 0.792063
vt 0.492967 0.875589
vt 0.479045 0.867439
vt 0.386290 0.973349
vt 0.372369 0.973349
vt 0.368639 0.955660
vt 0.384844 0.955660
vt 0.469929 0.785893
vt 0.466434 0.785893
vt 0.080160 0.970946
vt 0.080160 0.954742
vt 0.092278 0.958471
vt 0.092278 0.972393
vt 0.262848 0.911259
vt 0.257984 0.908394
vt 0.259320 0.905221
vt 0.264389 0.907706
vt 0.260701 0.914586
vt 0.256263 0.911097
vn 0.954981 0.000000 0.296666
vn 0.954981 0.000000 0.296666
vn 0.954981 0.000000 0.296666
vn 0.954981 0.000000 0.296666
vn 0.486780 0.851814 0.193541
vn 0.486780 0.851814 0.193541
vn 0.486780 0.851814 0.193541
vn 0.486780 0.851814 0.193541
vn -0.665624 0.000000 -0.746287
vn -0.665624 0.000000 -0.746287
vn -0.665624 0.000000 -0.746287
vn -0.665624 0.000000 -0.746287
vn 0.486780 -0.851813 0.193545
vn 0.486780 -0.851813 0.193545
vn 0.486780 -0.851813 0.193545
vn 0.486780 -0.851813 0.193545
vn -0.261791 0.000000 0.965125
vn -0.261791 0.000000 0.965125
vn -0.261791 0.000000 0.965125
vn -0.261791 0.000000 0.965125
vn 0.184070 0.977902 0.099127
vn 0.184070 0.977902 0.099127
vn 0.184070 0.977902 0.099127
vn 0.184070 0.977902 0.099127
vn -0.397992 0.000000 0.917389
vn -0.397992 0.000000 0.917389
vn -0.397992 0.000000 0.917389
vn -0.397992 0.000000 0.917389
vn 0.184070 -0.977902 0.099127
vn 0.184070 -0.977902 0.099127
vn 0.184070 -0.977902 0.099127
vn 0.184070 -0.977902 0.099127
vn -0.112741 0.990636 -0.077005
vn -0.112741 0.990636 -0.077005
vn -0.112741 0.990636 -0.077005
vn -0.112741 0.990636 -0.077005
vn -0.542119 0.000000 0.840302
vn -0.542119 0.000000 0.840302
vn -0.542119 0.000000 0.840302
vn -0.542119 0.000000 0.840302
vn -0.112741 -0.990636 -0.077010
vn -0.112741 -0.990636 -0.077010
vn -0.112741 -0.990636 -0.077010
vn -0.112741 -0.990636 -0.077010
vn -0.531883 0.683585 -0.499812
vn -0.531883 0.683585 -0.499812
vn -0.531883 0.683585 -0.499812
vn -0.531883 0.683585 -0.499812
vn -0.695165 0.000000 0.718850
vn -0.695165 0.000000 0.718850
vn -0.695165 0.000000 0.718850
vn -0.695165 0.000000 0.718850
vn -0.315420 -0.901475 -0.296399
vn -0.315420 -0.901475 -0.296399
vn -0.315420 -0.901475 -0.296399
vn -0.315420 -0.901475 -0.296399
vn 0.528364 0.828276 0.186523
vn 0.528364 0.828276 0.186523
vn 0.528364 0.828276 0.186523
vn 0.528364 0.828276 0.186523
vn 0.193546 0.977948 0.078475
vn 0.193546 0.977948 0.078475
vn 0.193546 0.977948 0.078475
vn 0.193546 0.977948 0.078475
vn -0.142208 0.986920 -0.075939
vn -0.142208 0.986920 -0.075939
vn -0.142208 0.986920 -0.075939
vn -0.142208 0.986920 -0.075939
vn -0.292664 0.813856 -0.501982
vn -0.292664 0.813856 -0.501982
vn -0.292664 0.813856 -0.501982
vn -0.292664 0.813856 -0.501982
vn -0.489030 -0.864563 -0.115673
vn -0.489030 -0.864563 -0.115673
vn -0.489030 -0.864563 -0.115673
vn -0.489030 -0.864563 -0.115673
vn -0.193748 -0.977901 -0.078557
vn -0.193748 -0.977901 -0.078557
vn -0.193748 -0.977901 -0.078557
vn -0.193748 -0.977901 -0.078557
vn 0.120443 -0.990635 0.064316
vn 0.120443 -0.990635 0.064316
vn 0.120443 -0.990635 0.064316
vn 0.120443 -0.990635 0.064316
vn 0.583008 -0.683585 0.439105
vn 0.583008 -0.683585 0.439105
vn 0.583008 -0.683585 0.439105
vn 0.583008 -0.683585 0.439105
vn 0.977814 -0.043327 0.204947
vn 0.977814 -0.043327 0.204947
vn 0.977814 -0.043327 0.204947
vn 0.977814 -0.043327 0.204947
vn -0.236541 -0.162287 0.957972
vn -0.236541 -0.162287 0.957972
vn -0.236541 -0.162287 0.957972
vn -0.236541 -0.162287 0.957972
vn -0.296390 0.001813 0.955065
vn -0.296390 0.001813 0.955065
vn -0.296390 0.001813 0.955065
vn -0.296390 0.001813 0.955065
vn -0.459918 0.039558 0.887080
vn -0.459918 0.039558 0.887080
vn -0.459918 0.039558 0.887080
vn -0.459918 0.039558 0.887080
vn -0.120148 -0.959843 -0.253507
vn -0.120148 -0.959843 -0.253507
vn -0.120148 -0.959843 -0.253507
vn -0.120148 -0.959843 -0.253507
vn -0.766778 0.162034 0.621125
vn -0.766778 0.162034 0.621125
vn -0.766778 0.162034 0.621125
vn -0.766778 0.162034 0.621125
vn 0.968461 0.000000 0.249164
vn 0.968461 0.000000 0.249164
vn 0.968461 0.000000 0.249164
vn 0.968461 0.000000 0.249164
vn 0.575661 0.795426 0.189503
vn 0.575661 0.795426 0.189503
vn 0.575661 0.795426 0.189503
vn 0.575661 0.795426 0.189503
vn -0.842659 0.000000 -0.538448
vn -0.842659 0.000000 -0.538448
vn -0.842659 0.000000 -0.538448
vn -0.842659 0.000000 -0.538448
vn -0.448583 -0.881431 -0.147829
vn -0.448583 -0.881431 -0.147829
vn -0.448583 -0.881431 -0.147829
vn -0.448583 -0.881431 -0.147829
vn -0.037954 0.000000 0.999279
vn -0.037954 0.000000 0.999279
vn -0.037954 0.000000 0.999279
vn -0.037954 0.000000 0.999279
vn 0.352744 0.923036 0.153544
vn 0.352744 0.923036 0.153544
vn 0.352744 0.923036 0.153544
vn 0.352744 0.923036 0.153544
vn -0.395140 0.000000 0.918621
vn -0.395140 0.000000 0.918621
vn -0.395140 0.000000 0.918621
vn -0.395140 0.000000 0.918621
vn -0.302553 -0.943965 -0.131875
vn -0.302553 -0.943965 -0.131875
vn -0.302553 -0.943965 -0.131875
vn -0.302553 -0.943965 -0.131875
vn -0.137943 0.987728 -0.073244
vn -0.137943 0.987728 -0.073244
vn -0.137943 0.987728 -0.073244
vn -0.137943 0.987728 -0.073244
vn -0.531317 0.000000 0.847173
vn -0.531317 0.000000 0.847173
vn -0.531317 0.000000 0.847173
vn -0.531317 0.000000 0.847173
vn 0.230776 -0.965268 0.122478
vn 0.230776 -0.965268 0.122478
vn 0.230776 -0.965268 0.122478
vn 0.230776 -0.965268 0.122478
vn -0.811399 0.305378 -0.498373
vn -0.811399 0.305378 -0.498373
vn -0.811399 0.305378 -0.498373
vn -0.811399 0.305378 -0.498373
vn -0.228297 0.000000 0.973592
vn -0.228297 0.000000 0.973592
vn -0.228297 0.000000 0.973592
vn -0.228297 0.000000 0.973592
vn 0.771727 -0.423977 0.474006
vn 0.771727 -0.423977 0.474006
vn 0.771727 -0.423977 0.474006
vn 0.771727 -0.423977 0.474006
g group3 polySurface8 polySurface1
f 1/1/1 2/2/2 4/3/3 3/4/4
f 3/5/5 4/6/6 9/7/7 10/8/8
f 5/9/9 6/10/10 8/11/11 7/12/12
f 11/13/13 12/14/14 2/15/15 1/16/16
f 11/17/17 1/18/18 3/19/19 10/20/20
f 10/8/21 9/7/22 13/21/23 14/22/24
f 15/23/25 11/17/26 10/20/27 14/24/28
f 15/115/29 16/116/30 12/117/31 11/118/32
f 14/22/33 13/21/34 17/25/35 18/26/36
f 19/27/37 15/23/38 14/24/39 18/28/40
f 19/119/41 20/120/42 16/116/43 15/115/44
f 18/26/45 17/25/46 6/31/47 5/32/48
f 7/33/49 19/27/50 18/28/51 5/34/52
f 7/35/53 8/36/54 20/30/55 19/29/56
f 31/37/57 32/38/58 33/39/59 34/40/60
f 34/40/61 33/39/62 35/41/63 36/42/64
f 36/42/65 35/41/66 37/43/67 38/44/68
f 38/44/69 37/43/70 39/45/71 40/46/72
f 21/47/73 26/48/74 25/49/75 22/50/76
f 26/48/77 28/51/78 27/52/79 25/49/80
f 28/51/81 30/53/82 29/54/83 27/52/84
f 30/53/85 23/55/86 24/56/87 29/54/88
f 21/57/89 22/58/90 32/59/91 31/60/92
f 26/61/93 21/62/94 31/63/95 34/64/96
f 28/65/97 26/61/98 34/64/99 36/66/100
f 30/67/101 28/65/102 36/66/103 38/68/104
f 24/56/105 23/55/106 40/69/107 39/70/108
f 23/71/109 30/67/110 38/68/111 40/72/112
f 41/73/113 42/74/114 44/75/115 43/76/116
f 43/77/117 44/78/118 49/79/119 50/80/120
f 45/81/121 46/82/122 48/83/123 47/84/124
f 51/85/125 52/86/126 42/87/127 41/88/128
f 51/89/129 41/90/130 43/91/131 50/92/132
f 50/80/133 49/79/134 53/93/135 54/94/136
f 55/95/137 51/89/138 50/92/139 54/96/140
f 55/97/141 56/98/142 52/86/143 51/85/144
f 54/94/145 53/93/146 57/99/147 58/100/148
f 59/101/149 55/95/150 54/96/151 58/102/152
f 59/103/153 60/104/154 56/98/155 55/97/156
f 58/105/157 57/106/158 46/107/159 45/108/160
f 47/109/161 59/101/162 58/102/163 45/110/164
f 47/111/165 48/112/166 60/113/167 59/114/168
