# This file uses centimeters as units for non-parametric coordinates.

v 0.187398 -0.221558 0.669900
v 0.176873 -0.221925 0.131805
v 0.176873 -0.221925 0.002197
v 0.145630 -0.221558 -0.107147
v 0.023064 -0.221290 -0.122807
v -0.062839 -0.221558 -0.092707
v -0.130744 -0.221925 0.002197
v -0.184905 -0.221925 0.631898
v -0.099545 -0.221558 0.781270
v 0.072347 -0.221290 0.840551
v -0.107122 0.000313 0.788493
v 0.072347 0.000541 0.850603
v 0.194976 0.000313 0.677776
v 0.186943 0.000000 0.134002
v 0.186943 0.000000 0.000000
v 0.153208 0.000313 -0.115023
v 0.023064 0.000541 -0.132860
v -0.070416 0.000313 -0.099930
v -0.140815 0.000000 0.000000
v -0.194976 0.000000 0.634095
vt 0.514660 0.912326
vt 0.514690 0.888461
vt 0.544193 0.889469
vt 0.544158 0.912326
vt 0.514690 0.928632
vt 0.544193 0.927625
vt 0.499651 0.490024
vt 0.499693 0.562331
vt 0.470190 0.561284
vt 0.470141 0.489732
vt 0.499651 0.472205
vt 0.470141 0.472497
vt 0.499693 0.456910
vt 0.470190 0.457958
vt 0.592322 0.917888
vt 0.592292 0.935194
vt 0.562789 0.934186
vt 0.562825 0.917888
vt 0.592292 0.905458
vt 0.562789 0.906465
vt 0.592250 0.896097
vt 0.562740 0.897436
vt 0.742637 0.634113
vt 0.742637 0.549795
vt 0.772147 0.550087
vt 0.772147 0.633821
vt 0.742596 0.654644
vt 0.772098 0.653683
vt 0.057037 0.297354
vt 0.058437 0.368907
vt 0.043138 0.391599
vt 0.020281 0.383716
vt 0.008930 0.363853
vt 0.016132 0.280120
vt 0.025162 0.267500
vt 0.036585 0.263498
vt 0.052883 0.265580
vt 0.057037 0.280120
vt 0.856843 0.143798
vt 0.840537 0.120817
vt 0.841605 0.048509
vt 0.841605 0.030690
vt 0.846091 0.015396
vt 0.863396 0.013024
vt 0.875827 0.017402
vt 0.885188 0.030690
vt 0.892390 0.115008
vt 0.880708 0.135539
vn -0.326200 -0.042339 0.944352
vn -0.326200 -0.042339 0.944352
vn -0.326200 -0.042339 0.944352
vn -0.326200 -0.042339 0.944352
vn 0.821729 -0.037012 0.568675
vn 0.821729 -0.037012 0.568675
vn 0.821729 -0.037012 0.568675
vn 0.821729 -0.037012 0.568675
vn 0.999079 -0.039342 -0.017113
vn 0.999079 -0.039342 -0.017113
vn 0.999079 -0.039342 -0.017113
vn 0.999079 -0.039342 -0.017113
vn 0.998972 -0.045332 0.000000
vn 0.998972 -0.045332 0.000000
vn 0.998972 -0.045332 0.000000
vn 0.998972 -0.045332 0.000000
vn 0.959543 -0.044468 -0.278029
vn 0.959543 -0.044468 -0.278029
vn 0.959543 -0.044468 -0.278029
vn 0.959543 -0.044468 -0.278029
vn 0.131205 -0.042261 -0.990454
vn 0.131205 -0.042261 -0.990454
vn 0.131205 -0.042261 -0.990454
vn 0.131205 -0.042261 -0.990454
vn -0.331097 -0.042356 -0.942646
vn -0.331097 -0.042356 -0.942646
vn -0.331097 -0.042356 -0.942646
vn -0.331097 -0.042356 -0.942646
vn -0.814552 -0.044668 -0.578368
vn -0.814552 -0.044668 -0.578368
vn -0.814552 -0.044668 -0.578368
vn -0.814552 -0.044668 -0.578368
vn -0.995330 -0.045168 -0.085312
vn -0.995330 -0.045168 -0.085312
vn -0.995330 -0.045168 -0.085312
vn -0.995330 -0.045168 -0.085312
vn -0.867774 -0.045014 0.494916
vn -0.867774 -0.045014 0.494916
vn -0.867774 -0.045014 0.494916
vn -0.867774 -0.045014 0.494916
vn 0.000418 -1.000000 0.000119
vn 0.000418 -1.000000 0.000119
vn 0.000418 -1.000000 0.000119
vn 0.000418 -1.000000 0.000119
vn -0.000330 1.000000 -0.000094
vn -0.000330 1.000000 -0.000094
vn -0.000330 1.000000 -0.000094
vn -0.000330 1.000000 -0.000094
vn -0.000330 1.000000 -0.000094
vn -0.000330 1.000000 -0.000094
vn -0.000330 1.000000 -0.000094
vn -0.000330 1.000000 -0.000094
vn -0.000330 1.000000 -0.000094
vn -0.000330 1.000000 -0.000094
vn 0.000418 -1.000000 0.000119
vn 0.000418 -1.000000 0.000119
vn 0.000418 -1.000000 0.000119
vn 0.000418 -1.000000 0.000119
vn 0.000418 -1.000000 0.000119
vn 0.000418 -1.000000 0.000119
g polySurface7 group3
f 12/1/1 11/2/2 9/3/3 10/4/4
f 13/5/5 12/1/6 10/4/7 1/6/8
f 14/7/9 13/8/10 1/9/11 2/10/12
f 15/11/13 14/7/14 2/10/15 3/12/16
f 16/13/17 15/11/18 3/12/19 4/14/20
f 17/15/21 16/16/22 4/17/23 5/18/24
f 18/19/25 17/15/26 5/18/27 6/20/28
f 19/21/29 18/19/30 6/20/31 7/22/32
f 20/23/33 19/24/34 7/25/35 8/26/36
f 11/27/37 20/23/38 8/26/39 9/28/40
f 2/29/41 7/34/42 6/35/43 3/38/44
f 20/47/45 13/40/46 14/41/47 19/46/48
f 18/45/49 15/42/50 16/43/51 17/44/52
f 12/39/53 13/40/46 20/47/45 11/48/54
f 19/46/48 14/41/47 15/42/50 18/45/49
f 2/29/41 1/30/55 8/33/56 7/34/42
f 3/38/44 6/35/43 5/36/57 4/37/58
f 8/33/56 1/30/55 10/31/59 9/32/60
