# This file uses centimeters as units for non-parametric coordinates.

v -0.080444 2.013328 4.109963
v -0.080444 5.667040 4.109963
v 2.169973 5.667040 4.109963
v 2.169973 2.013328 4.109963
v 7.336084 2.013328 4.109963
v 7.336084 5.667040 4.109963
v 9.586502 5.667040 4.109963
v 9.586502 2.013328 4.109963
v -7.543199 2.013328 4.109963
v -7.543199 5.667040 4.109963
v -5.292781 5.667040 4.109963
v -5.292781 2.013328 4.109963
vt 0.567037 0.741052
vt 0.435662 0.741052
vt 0.435662 0.258948
vt 0.567037 0.258948
vt 0.810576 0.741052
vt 0.679201 0.741052
vt 0.679200 0.258948
vt 0.810576 0.258948
vt 0.320800 0.741052
vt 0.189424 0.741052
vt 0.189424 0.258948
vt 0.320799 0.258948
vn 0.000000 0.000000 -1.000000
vn 0.000000 0.000000 -1.000000
vn 0.000000 0.000000 -1.000000
vn 0.000000 0.000000 -1.000000
vn 0.000000 0.000000 -1.000000
vn 0.000000 0.000000 -1.000000
vn 0.000000 0.000000 -1.000000
vn 0.000000 0.000000 -1.000000
vn 0.000000 0.000000 -1.000000
vn 0.000000 0.000000 -1.000000
vn 0.000000 0.000000 -1.000000
vn 0.000000 0.000000 -1.000000
g mirror4
f 4/1/1 1/2/2 2/3/3 3/4/4
f 8/5/5 5/6/6 6/7/7 7/8/8
f 12/9/9 9/10/10 10/11/11 11/12/12
