# This file uses centimeters as units for non-parametric coordinates.

v 0.467363 -0.387020 0.004191
v -0.467363 -0.387020 0.004191
v 0.467363 0.387020 0.004191
v -0.467363 0.387020 0.004191
v 0.467363 0.387020 0.083772
v -0.467363 0.387020 0.083772
v 0.467363 -0.387020 0.083772
v -0.467363 -0.387020 0.083772
vt 0.890128 0.443624
vt 0.117298 0.443624
vt 0.117298 0.253440
vt 0.890128 0.253440
vt 0.117298 0.219372
vt 0.890128 0.219372
vt 0.117298 0.029188
vt 0.890128 0.029188
vt 0.890128 0.477692
vt 0.117298 0.477692
vt 0.083230 0.443624
vt 0.083230 0.253440
vt 0.924197 0.443624
vt 0.924197 0.253440
vn -0.000000 0.000000 -1.000000
vn -0.000000 0.000000 -1.000000
vn -0.000000 0.000000 -1.000000
vn -0.000000 0.000000 -1.000000
vn -0.000000 1.000000 0.000000
vn -0.000000 1.000000 0.000000
vn -0.000000 1.000000 0.000000
vn -0.000000 1.000000 0.000000
vn 0.000000 0.000000 1.000000
vn 0.000000 0.000000 1.000000
vn 0.000000 0.000000 1.000000
vn 0.000000 0.000000 1.000000
vn 0.000000 -1.000000 0.000000
vn 0.000000 -1.000000 0.000000
vn 0.000000 -1.000000 0.000000
vn 0.000000 -1.000000 0.000000
vn -1.000000 0.000000 0.000000
vn -1.000000 0.000000 0.000000
vn -1.000000 0.000000 0.000000
vn -1.000000 0.000000 0.000000
vn 1.000000 0.000000 -0.000000
vn 1.000000 0.000000 -0.000000
vn 1.000000 0.000000 -0.000000
vn 1.000000 0.000000 -0.000000
g palette_group1 palette_palette_group3 palette_palette_pCube8 palette_polySurface9 polySurface1 palette_polySurface1
f 1/1/1 2/2/2 4/3/3 3/4/4
f 3/4/5 4/3/6 6/5/7 5/6/8
f 5/6/9 6/5/10 8/7/11 7/8/12
f 7/9/13 8/10/14 2/2/15 1/1/16
f 2/2/17 8/11/18 6/12/19 4/3/20
f 7/13/21 1/1/22 3/4/23 5/14/24
v 0.417094 0.048095 -0.023836
v 0.156966 0.048095 -0.023836
v 0.417094 0.351999 -0.023836
v 0.156966 0.351999 -0.023836
v 0.417094 0.351999 0.004191
v 0.156966 0.351999 0.004191
v 0.417094 0.048095 0.004191
v 0.156966 0.048095 0.004191
vt 0.066621 0.949867
vt 0.066621 0.838934
vt 0.141002 0.838934
vt 0.141002 0.949867
vt 0.156215 0.838934
vt 0.156215 0.949867
vt 0.051408 0.949867
vt 0.051408 0.838934
vt 0.066621 0.823721
vt 0.141002 0.823721
vt 0.066621 0.965080
vt 0.141002 0.965080
vn -0.000000 0.000000 -1.000000
vn -0.000000 0.000000 -1.000000
vn -0.000000 0.000000 -1.000000
vn -0.000000 0.000000 -1.000000
vn -0.000000 1.000000 0.000000
vn -0.000000 1.000000 0.000000
vn -0.000000 1.000000 0.000000
vn -0.000000 1.000000 0.000000
vn 0.000000 -1.000000 0.000000
vn 0.000000 -1.000000 0.000000
vn 0.000000 -1.000000 0.000000
vn 0.000000 -1.000000 0.000000
vn -1.000000 0.000000 0.000000
vn -1.000000 0.000000 0.000000
vn -1.000000 0.000000 0.000000
vn -1.000000 0.000000 0.000000
vn 1.000000 0.000000 -0.000000
vn 1.000000 0.000000 -0.000000
vn 1.000000 0.000000 -0.000000
vn 1.000000 0.000000 -0.000000
g palette_group1 palette_palette_group4 palette_palette_pCube11 palette_polySurface2 palette_polySurface1 polySurface2
f 9/15/25 10/16/26 12/17/27 11/18/28
f 11/18/29 12/17/30 14/19/31 13/20/32
f 15/21/33 16/22/34 10/16/35 9/15/36
f 10/16/37 16/23/38 14/24/39 12/17/40
f 15/25/41 9/15/42 11/18/43 13/26/44
v 0.130067 0.048095 -0.023836
v -0.130067 0.048095 -0.023836
v 0.130067 0.351999 -0.023836
v -0.130067 0.351999 -0.023836
v 0.130067 0.351999 0.004191
v -0.130067 0.351999 0.004191
v 0.130067 0.048095 0.004191
v -0.130067 0.048095 0.004191
vt 0.264753 0.949867
vt 0.264753 0.838934
vt 0.339134 0.838934
vt 0.339134 0.949867
vt 0.354347 0.838934
vt 0.354347 0.949867
vt 0.249540 0.949867
vt 0.249540 0.838934
vt 0.264753 0.823721
vt 0.339134 0.823721
vt 0.264753 0.965080
vt 0.339134 0.965080
vn -0.000000 0.000000 -1.000000
vn -0.000000 0.000000 -1.000000
vn -0.000000 0.000000 -1.000000
vn -0.000000 0.000000 -1.000000
vn -0.000000 1.000000 0.000000
vn -0.000000 1.000000 0.000000
vn -0.000000 1.000000 0.000000
vn -0.000000 1.000000 0.000000
vn 0.000000 -1.000000 0.000000
vn 0.000000 -1.000000 0.000000
vn 0.000000 -1.000000 0.000000
vn 0.000000 -1.000000 0.000000
vn -1.000000 0.000000 0.000000
vn -1.000000 0.000000 0.000000
vn -1.000000 0.000000 0.000000
vn -1.000000 0.000000 0.000000
vn 1.000000 0.000000 -0.000000
vn 1.000000 0.000000 -0.000000
vn 1.000000 0.000000 -0.000000
vn 1.000000 0.000000 -0.000000
g palette_group1 palette_palette_group4 palette_palette_pCube10 palette_polySurface3 palette_polySurface1 polySurface3
f 17/27/45 18/28/46 20/29/47 19/30/48
f 19/30/49 20/29/50 22/31/51 21/32/52
f 23/33/53 24/34/54 18/28/55 17/27/56
f 18/28/57 24/35/58 22/36/59 20/29/60
f 23/37/61 17/27/62 19/30/63 21/38/64
v -0.156966 0.048095 -0.023836
v -0.417094 0.048095 -0.023836
v -0.156966 0.351999 -0.023836
v -0.417094 0.351999 -0.023836
v -0.156966 0.351999 0.004191
v -0.417094 0.351999 0.004191
v -0.156966 0.048095 0.004191
v -0.417094 0.048095 0.004191
vt 0.465562 0.949867
vt 0.465562 0.838934
vt 0.539943 0.838934
vt 0.539943 0.949867
vt 0.555156 0.838934
vt 0.555156 0.949867
vt 0.450349 0.949867
vt 0.450349 0.838934
vt 0.465562 0.823721
vt 0.539943 0.823721
vt 0.465562 0.965080
vt 0.539943 0.965080
vn -0.000000 0.000000 -1.000000
vn -0.000000 0.000000 -1.000000
vn -0.000000 0.000000 -1.000000
vn -0.000000 0.000000 -1.000000
vn -0.000000 1.000000 0.000000
vn -0.000000 1.000000 0.000000
vn -0.000000 1.000000 0.000000
vn -0.000000 1.000000 0.000000
vn 0.000000 -1.000000 0.000000
vn 0.000000 -1.000000 0.000000
vn 0.000000 -1.000000 0.000000
vn 0.000000 -1.000000 0.000000
vn -1.000000 0.000000 0.000000
vn -1.000000 0.000000 0.000000
vn -1.000000 0.000000 0.000000
vn -1.000000 0.000000 0.000000
vn 1.000000 0.000000 -0.000000
vn 1.000000 0.000000 -0.000000
vn 1.000000 0.000000 -0.000000
vn 1.000000 0.000000 -0.000000
g palette_group1 palette_palette_group4 palette_palette_pCube9 palette_polySurface4 palette_polySurface1 polySurface4
f 25/39/65 26/40/66 28/41/67 27/42/68
f 27/42/69 28/41/70 30/43/71 29/44/72
f 31/45/73 32/46/74 26/40/75 25/39/76
f 26/40/77 32/47/78 30/48/79 28/41/80
f 31/49/81 25/39/82 27/42/83 29/50/84
v 0.417094 -0.351999 -0.023836
v 0.156966 -0.351999 -0.023836
v 0.417094 -0.048095 -0.023836
v 0.156966 -0.048095 -0.023836
v 0.417094 -0.048095 0.004191
v 0.156966 -0.048095 0.004191
v 0.417094 -0.351999 0.004191
v 0.156966 -0.351999 0.004191
vt 0.655661 0.949867
vt 0.655661 0.838934
vt 0.730042 0.838934
vt 0.730042 0.949867
vt 0.745255 0.838934
vt 0.745255 0.949867
vt 0.640448 0.949867
vt 0.640448 0.838934
vt 0.655661 0.823721
vt 0.730042 0.823721
vt 0.655661 0.965080
vt 0.730042 0.965080
vn -0.000000 0.000000 -1.000000
vn -0.000000 0.000000 -1.000000
vn -0.000000 0.000000 -1.000000
vn -0.000000 0.000000 -1.000000
vn -0.000000 1.000000 0.000000
vn -0.000000 1.000000 0.000000
vn -0.000000 1.000000 0.000000
vn -0.000000 1.000000 0.000000
vn 0.000000 -1.000000 0.000000
vn 0.000000 -1.000000 0.000000
vn 0.000000 -1.000000 0.000000
vn 0.000000 -1.000000 0.000000
vn -1.000000 0.000000 0.000000
vn -1.000000 0.000000 0.000000
vn -1.000000 0.000000 0.000000
vn -1.000000 0.000000 0.000000
vn 1.000000 0.000000 -0.000000
vn 1.000000 0.000000 -0.000000
vn 1.000000 0.000000 -0.000000
vn 1.000000 0.000000 -0.000000
g palette_group1 palette_palette_group4 palette_palette_pCube12 palette_polySurface8 palette_polySurface1 polySurface7
f 33/51/85 34/52/86 36/53/87 35/54/88
f 35/54/89 36/53/90 38/55/91 37/56/92
f 39/57/93 40/58/94 34/52/95 33/51/96
f 34/52/97 40/59/98 38/60/99 36/53/100
f 39/61/101 33/51/102 35/54/103 37/62/104
v 0.130067 -0.351999 -0.023836
v -0.130067 -0.351999 -0.023836
v 0.130067 -0.048095 -0.023836
v -0.130067 -0.048095 -0.023836
v 0.130067 -0.048095 0.004191
v -0.130067 -0.048095 0.004191
v 0.130067 -0.351999 0.004191
v -0.130067 -0.351999 0.004191
vt 0.867180 0.949867
vt 0.867180 0.838934
vt 0.941561 0.838934
vt 0.941561 0.949867
vt 0.956774 0.838934
vt 0.956774 0.949867
vt 0.851967 0.949867
vt 0.851967 0.838934
vt 0.867180 0.823721
vt 0.941561 0.823721
vt 0.867180 0.965080
vt 0.941561 0.965080
vn -0.000000 0.000000 -1.000000
vn -0.000000 0.000000 -1.000000
vn -0.000000 0.000000 -1.000000
vn -0.000000 0.000000 -1.000000
vn -0.000000 1.000000 0.000000
vn -0.000000 1.000000 0.000000
vn -0.000000 1.000000 0.000000
vn -0.000000 1.000000 0.000000
vn 0.000000 -1.000000 0.000000
vn 0.000000 -1.000000 0.000000
vn 0.000000 -1.000000 0.000000
vn 0.000000 -1.000000 0.000000
vn -1.000000 0.000000 0.000000
vn -1.000000 0.000000 0.000000
vn -1.000000 0.000000 0.000000
vn -1.000000 0.000000 0.000000
vn 1.000000 0.000000 -0.000000
vn 1.000000 0.000000 -0.000000
vn 1.000000 0.000000 -0.000000
vn 1.000000 0.000000 -0.000000
g palette_group1 palette_palette_group4 palette_palette_pCube13 palette_polySurface6 palette_polySurface1 polySurface6
f 41/63/105 42/64/106 44/65/107 43/66/108
f 43/66/109 44/65/110 46/67/111 45/68/112
f 47/69/113 48/70/114 42/64/115 41/63/116
f 42/64/117 48/71/118 46/72/119 44/65/120
f 47/73/121 41/63/122 43/66/123 45/74/124
v -0.156966 -0.351999 -0.023836
v -0.417094 -0.351999 -0.023836
v -0.156966 -0.048095 -0.023836
v -0.417094 -0.048095 -0.023836
v -0.156966 -0.048095 0.004191
v -0.417094 -0.048095 0.004191
v -0.156966 -0.351999 0.004191
v -0.417094 -0.351999 0.004191
vt 0.066621 0.757090
vt 0.066621 0.646157
vt 0.141002 0.646157
vt 0.141002 0.757090
vt 0.156215 0.646158
vt 0.156215 0.757090
vt 0.051408 0.757090
vt 0.051408 0.646157
vt 0.066621 0.630944
vt 0.141002 0.630944
vt 0.066621 0.772303
vt 0.141002 0.772303
vn -0.000000 0.000000 -1.000000
vn -0.000000 0.000000 -1.000000
vn -0.000000 0.000000 -1.000000
vn -0.000000 0.000000 -1.000000
vn -0.000000 1.000000 0.000000
vn -0.000000 1.000000 0.000000
vn -0.000000 1.000000 0.000000
vn -0.000000 1.000000 0.000000
vn 0.000000 -1.000000 0.000000
vn 0.000000 -1.000000 0.000000
vn 0.000000 -1.000000 0.000000
vn 0.000000 -1.000000 0.000000
vn -1.000000 0.000000 0.000000
vn -1.000000 0.000000 0.000000
vn -1.000000 0.000000 0.000000
vn -1.000000 0.000000 0.000000
vn 1.000000 0.000000 -0.000000
vn 1.000000 0.000000 -0.000000
vn 1.000000 0.000000 -0.000000
vn 1.000000 0.000000 -0.000000
g palette_group1 palette_palette_group4 palette_palette_pCube14 palette_polySurface5 palette_polySurface1 polySurface5
f 49/75/125 50/76/126 52/77/127 51/78/128
f 51/78/129 52/77/130 54/79/131 53/80/132
f 55/81/133 56/82/134 50/76/135 49/75/136
f 50/76/137 56/83/138 54/84/139 52/77/140
f 55/85/141 49/75/142 51/78/143 53/86/144
